<?xml version="1.0" encoding="utf-8"?>
<svg viewBox="531.448 93.2917 271.525 243.7412" xmlns="http://www.w3.org/2000/svg">
  <path d="M 800.591 186.503 C 800.494 186.504 800.399 186.474 800.319 186.418 L 668.578 94.669 C 667.756 94.1 666.668 94.102 665.849 94.674 L 535.056 186.417 C 534.756 186.627 534.34 186.434 534.308 186.069 C 534.293 185.899 534.37 185.735 534.509 185.637 L 665.302 93.894 C 666.449 93.093 667.973 93.091 669.122 93.888 L 800.864 185.636 C 801.165 185.846 801.126 186.303 800.794 186.458 C 800.73 186.488 800.661 186.503 800.591 186.503 Z" fill="#3f3d56" style="" transform="matrix(1, 0, 0, 1, 3.552713678800501e-15, 0)"/>
  <rect x="532.769" y="187.274" width="269.063" height="148.693" style="stroke: rgb(0, 0, 0); fill: rgb(255, 255, 255); fill-rule: nonzero; paint-order: fill; stroke-opacity: 0;" transform="matrix(1, 0, 0, 1, 3.552713678800501e-15, 0)"/>
  <polygon points="542.53 189.756 667.342 97.255 793.101 196.338 673.773 267.077 608.988 252.31 542.53 189.756" fill="#e6e6e6" style="" transform="matrix(1, 0, 0, 1, 3.552713678800501e-15, 0)"/>
  <path d="M 614.457 310.77 L 552.797 310.77 C 550.579 310.772 549.19 308.374 550.296 306.451 C 550.811 305.557 551.765 305.007 552.797 305.008 L 614.457 305.008 C 616.674 305.005 618.063 307.404 616.957 309.326 C 616.442 310.22 615.488 310.771 614.457 310.77 Z" fill="#6c63ff" style="" transform="matrix(1, 0, 0, 1, 3.552713678800501e-15, 0)"/>
  <path d="M 574.919 298.384 L 552.797 298.384 C 550.579 298.387 549.19 295.988 550.296 294.066 C 550.811 293.172 551.765 292.621 552.797 292.623 L 574.919 292.623 C 577.136 292.62 578.525 295.019 577.419 296.94 C 576.904 297.835 575.95 298.385 574.919 298.384 Z" fill="#6c63ff" style="" transform="matrix(1, 0, 0, 1, 3.552713678800501e-15, 0)"/>
  <path d="M 669.097 241.277 C 668.629 241.278 668.164 241.187 667.73 241.01 L 590.755 209.07 L 590.755 109.095 C 590.757 107.254 592.249 105.762 594.09 105.76 L 741.761 105.76 C 743.602 105.762 745.093 107.254 745.096 109.095 L 745.096 209.14 L 744.951 209.202 L 670.506 240.994 C 670.06 241.182 669.581 241.278 669.097 241.277 Z" fill="#fff" style="" transform="matrix(1, 0, 0, 1, 3.552713678800501e-15, 0)"/>
  <path d="M 669.097 241.515 C 668.598 241.516 668.102 241.419 667.64 241.23 L 590.517 209.229 L 590.517 109.095 C 590.519 107.122 592.117 105.524 594.09 105.522 L 741.761 105.522 C 743.733 105.524 745.332 107.122 745.334 109.095 L 745.334 209.297 L 670.599 241.213 C 670.123 241.413 669.613 241.516 669.097 241.515 Z M 591.47 208.593 L 668.003 240.349 C 668.717 240.639 669.516 240.634 670.227 240.336 L 744.381 208.668 L 744.381 109.095 C 744.379 107.648 743.208 106.477 741.761 106.475 L 594.09 106.475 C 592.644 106.477 591.471 107.648 591.47 109.095 L 591.47 208.593 Z" fill="#fff" style="" transform="matrix(1, 0, 0, 1, 3.552713678800501e-15, 0)"/>
  <path d="M 799.639 185.55 L 799.543 185.55 L 744.857 208.902 L 670.036 240.851 C 669.445 241.1 668.78 241.103 668.187 240.86 L 590.993 208.835 L 534.964 185.588 L 534.878 185.55 L 534.783 185.55 C 532.942 185.553 531.45 187.044 531.448 188.885 L 531.448 333.698 C 531.45 335.539 532.942 337.031 534.783 337.033 L 799.639 337.033 C 801.48 337.031 802.971 335.539 802.973 333.698 L 802.973 188.885 C 802.971 187.044 801.48 185.553 799.639 185.55 Z M 802.02 333.698 C 802.02 335.013 800.954 336.08 799.639 336.08 L 534.783 336.08 C 533.467 336.08 532.402 335.013 532.401 333.698 L 532.401 188.885 C 532.403 187.605 533.413 186.555 534.692 186.503 L 590.993 209.864 L 667.821 241.742 C 668.652 242.08 669.584 242.075 670.412 241.727 L 744.857 209.935 L 799.734 186.503 C 801.01 186.558 802.017 187.608 802.02 188.885 L 802.02 333.698 Z" fill="#3f3d56" style="" transform="matrix(1, 0, 0, 1, 3.552713678800501e-15, 0)"/>
  <path d="M 668.328 212.928 C 665.486 212.933 662.72 212.015 660.446 210.31 L 660.305 210.204 L 630.623 187.478 C 622.565 181.304 624.212 168.722 633.588 164.831 C 637.939 163.024 642.924 163.677 646.664 166.543 L 665.89 181.285 L 711.324 122.032 C 715.755 116.252 724.034 115.159 729.813 119.591 L 729.53 119.975 L 729.82 119.597 C 735.592 124.033 736.684 132.304 732.261 138.086 L 678.819 207.782 C 676.314 211.037 672.435 212.94 668.328 212.928 Z" fill="#6c63ff" style="" transform="matrix(1, 0, 0, 1, 3.552713678800501e-15, 0)"/>
</svg>